<?xml version="1.0" standalone="no"?><!DOCTYPE svg PUBLIC "-//W3C//DTD SVG 1.1//EN" "http://www.w3.org/Graphics/SVG/1.1/DTD/svg11.dtd"><svg t="1517056893617" class="icon" style="" viewBox="0 0 1024 1024" version="1.1" xmlns="http://www.w3.org/2000/svg" p-id="1580" xmlns:xlink="http://www.w3.org/1999/xlink" width="40" height="40"><defs>
    <style type="text/css"></style></defs>
    <path d="M912.243701 879.532185V0H111.756299v879.532185H73.793594v143.624199h876.412812v-143.624199h-37.962705z m-51.276527-828.2921v386.020669h-21.440227a350.862121 350.862121 0 0 1-21.119545-120.132327h-51.276527c0 41.001907 6.158577 81.276811 18.293524 120.132327h-7.960598c-57.517096-59.805609-137.43647-273.524612-175.348157-386.018847h258.85153z m0 828.2921h-94.492242c1.361082-31.359544 13.344797-323.452811 17.770591-354.411502l5.23479-36.616199h71.486861v391.029523zM548.120598 51.241907c10.544285 31.707559 34.387815 101.567317 63.650164 175.570449 50.030235 126.524128 92.123559 207.123132 128.240512 245.401053l-6.526633 45.660926c-4.768342 33.35106-16.93973 327.880427-18.333609 361.661494h-406.302064c-1.392057-33.784712-13.563445-328.312256-18.329964-361.661494l-6.528456-45.660926c36.116954-38.277922 78.210278-118.878747 128.240512-245.401053 29.262349-74.003132 53.107701-143.86289 63.650164-175.568626h72.239374z m-385.087772 0H421.880712c-37.911687 112.496057-117.832883 326.21506-175.348157 386.02067h-7.96242c12.136769-38.857338 18.295345-79.132242 18.295345-120.132328h-51.272882c0 41.193224-7.116982 81.544655-21.121367 120.132328H163.032826V51.241907z m0 437.258933H234.517865l5.236612 36.618021c4.423972 30.956868 16.409509 323.050135 17.768769 354.411502h-94.492242V488.50084zM897.639858 970.6281H126.360142V932.058648h771.279716v38.56763z" fill="#515151" p-id="1581"></path></svg>