<?xml version="1.0" standalone="no"?><!DOCTYPE svg PUBLIC "-//W3C//DTD SVG 1.1//EN" "http://www.w3.org/Graphics/SVG/1.1/DTD/svg11.dtd"><svg class="icon" width="200px" height="200.00px" viewBox="0 0 1024 1024" version="1.1" xmlns="http://www.w3.org/2000/svg"><path d="M510.54537 60.915371 510.54537 60.915371c27.096125 0 49.049113 21.961174 49.049113 49.048089l0 294.290583c0 27.086915-21.952988 49.048089-49.049113 49.048089l0 0c-27.095102 0-49.048089-21.961174-49.048089-49.048089L461.497281 109.963461C461.497281 82.876546 483.450269 60.915371 510.54537 60.915371z" fill="#515151" /><path d="M248.954537 420.603407l523.18269 0c36.115546 0 65.397453 29.281907 65.397453 65.397453l0 130.794905c0 36.115546-29.281907 65.397453-65.397453 65.397453L248.954537 682.193217c-36.115546 0-65.397453-29.281907-65.397453-65.397453L183.557084 486.000859C183.556061 449.885314 212.838991 420.603407 248.954537 420.603407z" fill="#515151" /><path d="M232.60415 698.543603l0 196.256826c0 36.083823 29.281907 65.334008 65.397453 65.334008l425.087535 0c36.099173 0 65.397453-29.250184 65.397453-65.334008L788.48659 698.543603 232.60415 698.543603zM347.050716 920.538627c0 8.987698-7.249101 16.268522-16.350386 16.268522-9.036817 0-16.349363-7.393387-16.349363-16.268522L314.350966 758.352781c0-8.980535 7.249101-16.268522 16.349363-16.268522 9.036817 0 16.350386 7.398504 16.350386 16.268522L347.050716 920.538627zM461.497281 920.538627c0 8.987698-7.249101 16.268522-16.350386 16.268522-9.036817 0-16.349363-7.393387-16.349363-16.268522L428.797531 758.352781c0-8.980535 7.248078-16.268522 16.349363-16.268522 9.036817 0 16.350386 7.398504 16.350386 16.268522L461.497281 920.538627zM592.293209 920.538627c0 8.987698-7.248078 16.268522-16.349363 16.268522-9.036817 0-16.350386-7.393387-16.350386-16.268522L559.59346 758.352781c0-8.980535 7.249101-16.268522 16.350386-16.268522 9.036817 0 16.349363 7.398504 16.349363 16.268522L592.293209 920.538627zM706.739774 920.538627c0 8.987698-7.249101 16.268522-16.350386 16.268522-9.036817 0-16.349363-7.393387-16.349363-16.268522L674.040025 758.352781c0-8.980535 7.248078-16.268522 16.349363-16.268522 9.036817 0 16.350386 7.398504 16.350386 16.268522L706.739774 920.538627z" fill="#515151" /></svg>