<?xml version="1.0" standalone="no"?><!DOCTYPE svg PUBLIC "-//W3C//DTD SVG 1.1//EN" "http://www.w3.org/Graphics/SVG/1.1/DTD/svg11.dtd"><svg class="icon" width="200px" height="200.00px" viewBox="0 0 1024 1024" version="1.1" xmlns="http://www.w3.org/2000/svg"><path d="M512 128c-212.053333 0-384 171.946667-384 384s171.946667 384 384 384c35.413333 0 64-28.586667 64-64 0-16.64-6.186667-31.573333-16.64-42.88-10.026667-11.306667-16-26.026667-16-42.453333 0-35.413333 28.586667-64 64-64l75.306667 0c117.76 0 213.333333-95.573333 213.333333-213.333333 0-188.586667-171.946667-341.333333-384-341.333333zM277.333333 512c-35.413333 0-64-28.586667-64-64s28.586667-64 64-64 64 28.586667 64 64-28.586667 64-64 64zM405.333333 341.333333c-35.413333 0-64-28.586667-64-64s28.586667-64 64-64 64 28.586667 64 64-28.586667 64-64 64zM618.666667 341.333333c-35.413333 0-64-28.586667-64-64s28.586667-64 64-64 64 28.586667 64 64-28.586667 64-64 64zM746.666667 512c-35.413333 0-64-28.586667-64-64s28.586667-64 64-64 64 28.586667 64 64-28.586667 64-64 64z" fill="#515151" /></svg>