<?xml version="1.0" standalone="no"?><!DOCTYPE svg PUBLIC "-//W3C//DTD SVG 1.1//EN" "http://www.w3.org/Graphics/SVG/1.1/DTD/svg11.dtd"><svg class="icon" width="200px" height="200.00px" viewBox="0 0 1024 1024" version="1.1" xmlns="http://www.w3.org/2000/svg"><path d="M252.76928 299.904l146.2784 0 0 472.42752-146.2784 0 0-472.42752Z" fill="#515151" /><path d="M477.48096 85.34528l70.87104 0 0 885.80608-70.87104 0 0-885.80608Z" fill="#515151" /><path d="M629.80096 284.8l31.0016 0 0 502.88128-31.0016 0L629.80096 284.8zM776.42752 284.8l31.0016 0 0 502.88128-31.0016 0L776.42752 284.8zM657.09056 315.8016l0-31.0016 123.04896 0 0 31.0016L657.09056 315.8016zM657.27488 787.64544l0-31.0016 123.04896 0 0 31.0016L657.27488 787.64544z" fill="#515151" /></svg>