<?xml version="1.0" standalone="no"?><!DOCTYPE svg PUBLIC "-//W3C//DTD SVG 1.1//EN" "http://www.w3.org/Graphics/SVG/1.1/DTD/svg11.dtd"><svg class="icon" width="200px" height="200.00px" viewBox="0 0 1024 1024" version="1.1" xmlns="http://www.w3.org/2000/svg"><path d="M473.897674 605.057603L821.947764 159.370304c21.798927-27.844007 16.852952-67.96136-10.991056-89.760286-27.844007-21.615742-67.96136-16.669767-89.577102 10.991055l-348.050089 445.687299 100.568157 78.769231z m371.864043-579.594991c52.207513 40.850089 61.366726 116.322004 20.516637 168.529517l-382.855098 489.834705-189.046154-147.829696 382.855098-489.834705c40.850089-52.207513 116.322004-61.366726 168.529517-20.699821z" fill="#515151" /><path d="M252.427907 680.712701l102.4 80.051521 389.083363-498.077997-102.4-80.05152L252.427907 680.712701z m379.740966-575.198569l189.046154 147.829696-456.861539 584.540966-189.046153-147.829696L632.168873 105.514132z" fill="#515151" /><path d="M584.174597 69.793202l-78.952415 9.708766 44.330591 34.621824 34.621824-44.33059z m201.136315 228.430769l-9.708765-78.952415L740.980322 263.785331l44.33059 34.43864zM740.980322 263.785331L336.87585 780.91449l26.195349 57.703041L819.749553 254.076565 539.844007 35.171377l-342.554562 438.543113 44.330591 34.621825L549.552773 114.123792 740.980322 263.785331z m34.621825-44.33059l9.708765 78.952415L740.980322 263.785331l34.621825-44.33059zM505.222182 79.501968l78.952415-9.708766-34.621824 44.33059-44.330591-34.621824z m-168.346332 701.412522l26.195349 57.703041L819.749553 254.076565 539.844007 35.171377l-342.554562 438.543113 44.330591 34.621825L549.552773 114.123792 740.980322 263.785331 336.87585 780.91449z" fill="#515151" /><path d="M223.667979 792.455098l31.324508 24.363507 30.774955-39.384616-31.324508-24.363506-30.774955 39.384615z m21.249373-118.520214l119.802505 93.607155-100.384973 128.412165L144.532379 802.347048l100.384973-128.412164z" fill="#515151" /><path d="M201.869052 805.827549l-64.847227 82.982469L180.436494 922.699106l64.847227-83.165653zM83.348837 1024h857.302326v-56.78712H83.348837z" fill="#515151" /></svg>