<?xml version="1.0" standalone="no"?><!DOCTYPE svg PUBLIC "-//W3C//DTD SVG 1.1//EN" "http://www.w3.org/Graphics/SVG/1.1/DTD/svg11.dtd"><svg class="icon" width="200px" height="200.00px" viewBox="0 0 1024 1024" version="1.1" xmlns="http://www.w3.org/2000/svg"><path d="M955.076923 39.384615h-59.076923c-15.753846 0-29.538462 13.784615-29.538462 29.538462v137.846154c0 17.723077-19.692308 29.538462-31.507692 15.753846C742.4 120.123077 610.461538 66.953846 466.707692 80.738462c-51.2 3.938462-100.430769 19.692308-145.723077 43.323076-23.630769 11.815385-47.261538 25.6-66.953846 41.353847-13.784615 9.846154-15.753846 31.507692-3.938461 45.292307l41.353846 41.353846c9.846154 9.846154 25.6 11.815385 37.415384 3.938462 23.630769-15.753846 49.230769-29.538462 76.8-41.353846 11.815385-3.938462 25.6-7.876923 39.384616-11.815385 124.061538-23.630769 242.215385 25.6 309.169231 106.338462 23.630769 27.569231 5.907692 45.292308-13.784616 45.292307h-137.846154c-15.753846 0-31.507692 13.784615-31.507692 29.538462v59.076923c0 15.753846 15.753846 29.538462 31.507692 29.538462h358.4c13.784615 0 23.630769-11.815385 23.63077-25.6V68.923077c0-15.753846-13.784615-29.538462-29.538462-29.538462z m-179.2 697.107693c-11.815385-11.815385-29.538462-11.815385-41.353846 0-31.507692 31.507692-70.892308 57.107692-114.215385 72.861538-11.815385 3.938462-25.6 7.876923-39.384615 11.815385-124.061538 23.630769-242.215385-25.6-309.169231-106.338462-23.630769-27.569231-5.907692-45.292308 13.784616-45.292307h137.846153c15.753846 0 29.538462-13.784615 29.538462-29.538462v-59.076923c0-15.753846-13.784615-29.538462-29.538462-29.538462H64.984615c-13.784615 0-25.6 11.815385-25.6 25.6v378.092308c0 15.753846 13.784615 29.538462 29.538462 29.538462h59.076923c15.753846 0 29.538462-13.784615 29.538462-29.538462v-137.846154c0-17.723077 19.692308-29.538462 31.507692-15.753846 90.584615 102.4 224.492308 155.569231 368.246154 141.784615 51.2-3.938462 100.430769-19.692308 145.723077-43.323076 43.323077-21.661538 80.738462-49.230769 112.246153-80.738462 11.815385-11.815385 11.815385-31.507692 0-41.353846l-39.384615-41.353846z" fill="#515151" /></svg>