<?xml version="1.0" standalone="no"?><!DOCTYPE svg PUBLIC "-//W3C//DTD SVG 1.1//EN" "http://www.w3.org/Graphics/SVG/1.1/DTD/svg11.dtd"><svg class="icon" width="200px" height="200.00px" viewBox="0 0 1024 1024" version="1.1" xmlns="http://www.w3.org/2000/svg"><path d="M77.8 312.8H946v148.5H77.8z" fill="#515151" /><path d="M932 412.3v35H811.7v-35H77.8v48.9h868.1v-48.9z" fill="#515151" /><path d="M770 505.7H473c-15.4 0-27.8-12.5-27.8-27.8V296c0-15.4 12.5-27.8 27.8-27.8h297c15.4 0 27.8 12.5 27.8 27.8v181.9c0 15.4-12.5 27.8-27.8 27.8z" fill="#515151" /><path d="M945.9 298.8H811.7V296c0-23-18.7-41.8-41.8-41.8H473c-23 0-41.8 18.7-41.8 41.8v2.8h-38c-7.7 0-13.9 6.2-13.9 13.9s6.2 13.9 13.9 13.9h38v120.6h-46.4v-39.4c0-7.7-6.2-13.9-13.9-13.9s-13.9 6.2-13.9 13.9v39.4h-31.5v-39.4c0-7.7-6.2-13.9-13.9-13.9s-13.9 6.2-13.9 13.9v39.4h-31.5v-39.4c0-7.7-6.2-13.9-13.9-13.9s-13.9 6.2-13.9 13.9v39.4H192V326.7h127c7.7 0 13.9-6.2 13.9-13.9s-6.2-13.9-13.9-13.9H191.9v-24.6c0-7.7-6.2-13.9-13.9-13.9H77.8c-7.7 0-13.9 6.2-13.9 13.9v289.5c0 2.2 0.5 4.4 1.6 6.4l100.2 193c3.1 5.9 10.1 8.8 16.4 6.9 5.8-1.8 9.9-7.3 9.9-13.3V475.1h239.4v2.8c0 20.2 14.4 37 33.4 40.9v237.9c0 6.1 4.1 11.6 9.9 13.3 6.3 1.9 13.3-1 16.4-6.9l100.2-193c1-2 1.6-4.2 1.6-6.4v-44.1h67.7c7.7 0 13.9-6.2 13.9-13.9s-6.2-13.9-13.9-13.9H473c-7.7 0-13.9-6.2-13.9-13.9V296c0-7.7 6.2-13.9 13.9-13.9h297c7.7 0 13.9 6.2 13.9 13.9v181.9c0 7.7-6.2 13.9-13.9 13.9h-35.3c-7.7 0-13.9 6.2-13.9 13.9s6.2 13.9 13.9 13.9H770c23 0 41.8-18.7 41.8-41.8V475H946c7.7 0 13.9-6.2 13.9-13.9V312.7c0-7.6-6.3-13.9-14-13.9z" fill="#515151" /><path d="M763.5 452.4V321.6c0-7.7-6.2-13.9-13.9-13.9H493.5c-7.7 0-13.9 6.2-13.9 13.9v130.8c0 7.7 6.2 13.9 13.9 13.9h256.1c7.6 0 13.9-6.2 13.9-13.9z" fill="#515151" /><path d="M507.4 335.5h228.3v103H507.4z" fill="#515151" /><path d="M811.7 326.7H932v85.6H811.7z" fill="#515151" /><path d="M811.7 412.3H932v35H811.7z" fill="#515151" /><path d="M164.1 658.4V288.2h-49.2v275.5z" fill="#515151" /><path d="M91.7 560.3l72.4 139.4v-41.3l-49.2-94.7V288.2H91.7z" fill="#515151" /><path d="M541.7 519.7h-49.2v138.7l49.2-94.7z" fill="#515151" /><path d="M564.9 560.3v-40.6h-23.2v44l-49.2 94.7v41.3z" fill="#515151" /><path d="M519.4 345.5h200.4v83H519.4z" fill="#515151" /></svg>