<?xml version="1.0" standalone="no"?><!DOCTYPE svg PUBLIC "-//W3C//DTD SVG 1.1//EN" "http://www.w3.org/Graphics/SVG/1.1/DTD/svg11.dtd"><svg class="icon" width="200px" height="200.00px" viewBox="0 0 1024 1024" version="1.1" xmlns="http://www.w3.org/2000/svg"><path d="M128 42.666667h85.333333v85.333333H128v85.333333H42.666667V128a85.333333 85.333333 0 0 1 85.333333-85.333333m469.333333 0a85.333333 85.333333 0 0 1 85.333334 85.333333v85.333333h-85.333334V128h-85.333333V42.666667h85.333333m256 256a85.333333 85.333333 0 0 1 85.333334 85.333333v85.333333h-85.333334V384h-85.333333V298.666667h85.333333m85.333334 554.666666a85.333333 85.333333 0 0 1-85.333334 85.333334h-85.333333v-85.333334h85.333333v-85.333333h85.333334v85.333333m-85.333334-298.666666h85.333334v128h-85.333334v-128m-298.666666-170.666667V298.666667h128v128h-85.333334V384h-42.666666m0 554.666667v-85.333334h128v85.333334h-128m-170.666667 0a85.333333 85.333333 0 0 1-85.333333-85.333334v-85.333333h85.333333v85.333333h85.333333v85.333334H384m-85.333333-256v-128h85.333333v42.666666h42.666667v85.333334H298.666667M298.666667 128V42.666667h128v85.333333H298.666667M128 682.666667a85.333333 85.333333 0 0 1-85.333333-85.333334v-85.333333h85.333333v85.333333h85.333333v85.333334H128M42.666667 298.666667h85.333333v128H42.666667V298.666667m341.333333 0h85.333333v85.333333H384v85.333333H298.666667V384a85.333333 85.333333 0 0 1 85.333333-85.333333m298.666667 298.666666a85.333333 85.333333 0 0 1-85.333334 85.333334h-85.333333v-85.333334h85.333333v-85.333333h85.333334v85.333333z" fill="#515151" /></svg>