<?xml version="1.0" standalone="no"?><!DOCTYPE svg PUBLIC "-//W3C//DTD SVG 1.1//EN" "http://www.w3.org/Graphics/SVG/1.1/DTD/svg11.dtd"><svg class="icon" width="200px" height="199.80px" viewBox="0 0 1025 1024" version="1.1" xmlns="http://www.w3.org/2000/svg"><path d="M356.383465 834.7136l-65.7408-153.3952c-0.0512-0.0512-0.0512-0.1536-0.1024-0.2048l-87.7568-204.8c-4.0448-9.4208-13.312-15.5136-23.552-15.5136s-19.5072 6.0928-23.552 15.5136l-87.7568 204.8c-0.0512 0.0512-0.0512 0.1536-0.1024 0.2048l-65.7408 153.3952c-5.5808 13.0048 0.4608 28.0576 13.4656 33.6384s28.0576-0.4608 33.6384-13.4656l59.1872-138.0864 141.7728 0 59.1872 138.0864c4.1472 9.728 13.6192 15.5136 23.552 15.5136 3.3792 0 6.8096-0.6656 10.0864-2.0992 13.0048-5.5808 18.9952-20.6336 13.4656-33.6384zM130.284265 665.6l48.9472-114.2272 48.9472 114.2272-97.8944 0z" fill="#515151" /><path d="M1022.085865 834.9696l-106.6496-256c-0.0512-0.0512-0.0512-0.1536-0.1024-0.2048l-149.248-358.1952c-3.9936-9.5232-13.312-15.7696-23.6544-15.7696s-19.6608 6.1952-23.6544 15.7696l-149.248 358.1952c-0.0512 0.0512-0.0512 0.1536-0.1024 0.2048l-106.6496 256c-5.4272 13.056 0.7168 28.0576 13.7728 33.4848s28.0576-0.7168 33.4848-13.7728l100.096-240.2304 264.5504 0 100.096 240.2304c4.096 9.8304 13.6192 15.7696 23.6544 15.7696 3.2768 0 6.6048-0.6144 9.8304-1.9968 13.056-5.4272 19.2-20.4288 13.7728-33.4848zM631.481065 563.2l110.9504-266.24 110.9504 266.24-221.8496 0z" fill="#515151" /></svg>