<?xml version="1.0" standalone="no"?><!DOCTYPE svg PUBLIC "-//W3C//DTD SVG 1.1//EN" "http://www.w3.org/Graphics/SVG/1.1/DTD/svg11.dtd"><svg class="icon" width="200px" height="200.00px" viewBox="0 0 1024 1024" version="1.1" xmlns="http://www.w3.org/2000/svg"><path d="M286.01856 250.91584l472.4224 0 0 146.2784-472.4224 0 0-146.2784Z" fill="#515151" /><path d="M87.19872 475.62752l885.80096 0 0 70.87104-885.80096 0 0-70.87104Z" fill="#515151" /><path d="M773.55008 627.94752l0 31.0016L270.6688 658.94912l0-31.0016L773.55008 627.94752zM773.55008 774.5792l0 31.0016L270.6688 805.5808l0-31.0016L773.55008 774.5792zM742.54848 655.24224l31.0016 0 0 123.04896-31.0016 0L742.54848 655.24224zM270.70464 655.42144l31.0016 0 0 123.04896-31.0016 0L270.70464 655.42144z" fill="#515151" /></svg>